# xmcd CD database file
#
# Track frame offsets:
#	150
#	19954
#	37423
#	52172
#	69239
#	88089
#	111611
#	132634
#	151680
#	167988
#	187415
#	203617
#	219669
#	236713
#	253371
#
# Disc length: 3564 seconds
#
# Revision: 0
# Processed by: cddbd v1.5.2PL0 Copyright (c) Steve Scherf et al.
# Submitted via: CDex 1.51
#
DISCID=f30dea0f
DTITLE=Latin Dance (Varios) - Latin Dance
DYEAR=1900
DGENRE=Merengue
TTITLE0=El Cepillo
TTITLE1=Follow  The Leader
TTITLE2=Un, Dos, Tres
TTITLE3=Baila
TTITLE4=Dame Dame Dame
TTITLE5=La Flaka (version Mix)
TTITLE6=Pequeño Motel (Version Hip Hop)
TTITLE7=Cha Cha Cha #7
TTITLE8=Fue Horrible
TTITLE9=Dame El Poder
TTITLE10=Josefina
TTITLE11=Bajo Tu Presion
TTITLE12=Mono Loco
TTITLE13=Cucaracha
TTITLE14=Duerme Soñando
EXTD=
EXTT0=
EXTT1=
EXTT2=
EXTT3=
EXTT4=
EXTT5=
EXTT6=
EXTT7=
EXTT8=
EXTT9=
EXTT10=
EXTT11=
EXTT12=
EXTT13=
EXTT14=
PLAYORDER=
